<?xml version="1.0" standalone="no"?>
<!DOCTYPE svg PUBLIC "-//W3C//DTD SVG 20010904//EN"
 "http://www.w3.org/TR/2001/REC-SVG-20010904/DTD/svg10.dtd">
<svg version="1.0" xmlns="http://www.w3.org/2000/svg"
 width="700.000000pt" height="700.000000pt" viewBox="0 0 700.000000 700.000000"
 preserveAspectRatio="xMidYMid meet">
<metadata>
Created by potrace 1.11, written by Peter Selinger 2001-2013
</metadata>
<g transform="translate(0.000000,700.000000) scale(0.100000,-0.100000)"
fill="#000000" stroke="none">
<path d="M1750 5245 l-1745 -1745 1250 -1250 1250 -1250 1142 1142 c1297 1298
1198 1186 1198 1358 0 82 -4 103 -26 150 -62 130 -196 208 -339 198 -137 -10
-117 6 -740 -613 -406 -403 -585 -574 -636 -608 -104 -68 -226 -123 -339 -154
-89 -23 -118 -26 -265 -27 -148 0 -175 3 -265 27 -292 79 -528 265 -668 527
-158 297 -168 633 -26 949 72 159 79 166 1299 1386 l1160 1160 -247 247 c-137
137 -250 248 -253 248 -3 0 -790 -785 -1750 -1745z"/>
<path d="M3344 4838 c-1117 -1118 -1152 -1155 -1174 -1213 -30 -83 -26 -197
11 -275 33 -70 99 -136 169 -169 47 -22 69 -26 150 -26 166 0 130 -28 780 619
601 598 626 620 795 694 95 41 163 60 275 77 120 19 190 19 313 0 417 -63 750
-363 864 -780 25 -89 27 -117 28 -260 0 -184 -14 -262 -75 -412 -82 -200 -45
-160 -1314 -1431 l-1161 -1162 248 -248 247 -247 1748 1748 1747 1747 -1245
1245 c-685 685 -1247 1245 -1250 1245 -3 0 -523 -519 -1156 -1152z"/>
</g>
</svg>
