<svg version="1" xmlns="http://www.w3.org/2000/svg" width="933.333" height="933.333" viewBox="0 0 700.000000 700.000000"><path d="M175 175.5L.5 350l125 125 125 125 114.2-114.2C494.4 356 484.5 367.2 484.5 350c0-8.2-.4-10.3-2.6-15-6.2-13-19.6-20.8-33.9-19.8-13.7 1-11.7-.6-74 61.3-40.6 40.3-58.5 57.4-63.6 60.8-10.4 6.8-22.6 12.3-33.9 15.4-8.9 2.3-11.8 2.6-26.5 2.7-14.8 0-17.5-.3-26.5-2.7-29.2-7.9-52.8-26.5-66.8-52.7-15.8-29.7-16.8-63.3-2.6-94.9 7.2-15.9 7.9-16.6 129.9-138.6l116-116-24.7-24.7C361.6 12.1 350.3 1 350 1c-.3 0-79 78.5-175 174.5z"/><path d="M334.4 216.2C222.7 328 219.2 331.7 217 337.5c-3 8.3-2.6 19.7 1.1 27.5 3.3 7 9.9 13.6 16.9 16.9 4.7 2.2 6.9 2.6 15 2.6 16.6 0 13 2.8 78-61.9 60.1-59.8 62.6-62 79.5-69.4 9.5-4.1 16.3-6 27.5-7.7 12-1.9 19-1.9 31.3 0 41.7 6.3 75 36.3 86.4 78 2.5 8.9 2.7 11.7 2.8 26 0 18.4-1.4 26.2-7.5 41.2-8.2 20-4.5 16-131.4 143.1L300.5 650l24.8 24.8 24.7 24.7 174.8-174.8L699.5 350 575 225.5C506.5 157 450.3 101 450 101c-.3 0-52.3 51.9-115.6 115.2z"/></svg>