<svg id="Ebene_1" data-name="Ebene 1" xmlns="http://www.w3.org/2000/svg" viewBox="0 0 24 24"><title>additional icons</title><path d="M11.2222,10.6126a5.3069,5.3069,0,0,1-.61,2.533,8.6264,8.6264,0,0,1-1.4294,1.9865,11.8911,11.8911,0,0,1-1.85,1.5451,17.1621,17.1621,0,0,1-1.6186.9985L5,16.4354q.8619-.5045,1.65-1.0405a6.3116,6.3116,0,0,0,1.2087-1.0195,5.8012,5.8012,0,0,0,.9039-1.3138,4.9533,4.9533,0,0,0,.42-1.7973H8.1742a2.9419,2.9419,0,0,1-2.06-.6727,2.4075,2.4075,0,0,1-.7357-1.8709,2.4379,2.4379,0,0,1,.6727-1.6291A2.3074,2.3074,0,0,1,7.88,6.3243,2.8345,2.8345,0,0,1,10.4444,7.512,5.57,5.57,0,0,1,11.2222,10.6126Zm7.7778,0a5.3069,5.3069,0,0,1-.61,2.533,8.6264,8.6264,0,0,1-1.4294,1.9865,11.8911,11.8911,0,0,1-1.85,1.5451,17.175,17.175,0,0,1-1.6186.9985l-.7147-1.24q.8619-.5045,1.65-1.0405a6.3054,6.3054,0,0,0,1.2087-1.0195,5.7948,5.7948,0,0,0,.9039-1.3138,4.9511,4.9511,0,0,0,.42-1.7973H15.952a2.9419,2.9419,0,0,1-2.06-.6727,2.4075,2.4075,0,0,1-.7357-1.8709,2.4383,2.4383,0,0,1,.6726-1.6291,2.3077,2.3077,0,0,1,1.8289-.7673A2.8346,2.8346,0,0,1,18.2222,7.512,5.5713,5.5713,0,0,1,19,10.6126Z"/></svg>