<svg id="Ebene_1" data-name="Ebene 1" xmlns="http://www.w3.org/2000/svg" viewBox="0 0 89 24"><title>icon</title><path d="M16.4033,15.0449h-3.71l-.8145,2.7559H9.8564l3.8565-11.87h1.72l3.7832,11.87H17.2021ZM13.1914,13.374h2.7227L14.5693,8.7188Z"/><path d="M27.7764,12.7461H22.7949v5.0547H20.8223V5.9307H28.51V7.5449H22.7949v3.5957h4.9815Z"/><path d="M32.83,16.2031h5.6582v1.5977H30.874V5.9307H32.83Z"/><path d="M48.0508,13.3818h-6.53V11.8086h6.53Z"/><path d="M52.8037,10.9854H53.97a2.7064,2.7064,0,0,0,.8965-.1348,1.7185,1.7185,0,0,0,.6358-.3789,1.5509,1.5509,0,0,0,.3789-.583,2.1231,2.1231,0,0,0,.1269-.7461,1.8449,1.8449,0,0,0-.4531-1.333A1.8163,1.8163,0,0,0,54.19,7.3408a2.2337,2.2337,0,0,0-.7374.1182,1.7575,1.7575,0,0,0-.5878.3389,1.543,1.543,0,0,0-.3868.53,1.6893,1.6893,0,0,0-.1386.7H50.3906a2.9946,2.9946,0,0,1,.2813-1.2959,3.1278,3.1278,0,0,1,.7822-1.0312,3.7118,3.7118,0,0,1,1.1943-.6846,4.4564,4.4564,0,0,1,1.5166-.249,5.2326,5.2326,0,0,1,1.5411.2158,3.3426,3.3426,0,0,1,1.1982.6406A2.8924,2.8924,0,0,1,57.6787,7.68a3.6159,3.6159,0,0,1,.2774,1.4629A2.5524,2.5524,0,0,1,57.85,9.86a2.7562,2.7562,0,0,1-.3213.7089,3.0853,3.0853,0,0,1-.5469.6407,3.0084,3.0084,0,0,1-.7783.5009,3.032,3.032,0,0,1,.9053.4815,2.6442,2.6442,0,0,1,.5947.6562,2.5374,2.5374,0,0,1,.3262.7784,3.6775,3.6775,0,0,1,.0977.8476,3.4912,3.4912,0,0,1-.3018,1.4834,3.0923,3.0923,0,0,1-.835,1.0967,3.7183,3.7183,0,0,1-1.26.6767,5.3161,5.3161,0,0,1-3.041.0206,3.7155,3.7155,0,0,1-1.2354-.6319,3.1081,3.1081,0,0,1-.8516-1.0439,3.14,3.14,0,0,1-.3183-1.4463h1.9492a1.8511,1.8511,0,0,0,.1377.7207,1.563,1.563,0,0,0,.3955.5625,1.8484,1.8484,0,0,0,.6162.3633,2.3459,2.3459,0,0,0,.8067.13,2.0747,2.0747,0,0,0,1.4638-.4932,1.8516,1.8516,0,0,0,.5332-1.4307,2.2992,2.2992,0,0,0-.1543-.8838,1.5744,1.5744,0,0,0-.4443-.6123,1.87,1.87,0,0,0-.6973-.3545,3.4178,3.4178,0,0,0-.9209-.1142h-1.166Z"/><path d="M63.2305,16.6348a1.5353,1.5353,0,0,1,.0937-.5381,1.2171,1.2171,0,0,1,.2735-.4356,1.267,1.267,0,0,1,.4443-.29,1.8013,1.8013,0,0,1,1.2148,0,1.3125,1.3125,0,0,1,.4483.29,1.2015,1.2015,0,0,1,.2773.4356,1.5353,1.5353,0,0,1,.0938.5381,1.4367,1.4367,0,0,1-.0938.5263,1.1911,1.1911,0,0,1-.2773.42,1.3088,1.3088,0,0,1-.4483.2812,1.8664,1.8664,0,0,1-1.2148,0,1.2631,1.2631,0,0,1-.4443-.2812,1.2063,1.2063,0,0,1-.2735-.42A1.4366,1.4366,0,0,1,63.2305,16.6348Z"/><path d="M78.4346,13.2842a7.0145,7.0145,0,0,1-.2647,2.0263,4.07,4.07,0,0,1-.7627,1.4668,3.15,3.15,0,0,1-1.2148.8926,4.4445,4.4445,0,0,1-3.22,0,3.1854,3.1854,0,0,1-1.2188-.8926,4.1335,4.1335,0,0,1-.7744-1.4668,6.8059,6.8059,0,0,1-.2734-2.0263V10.4473a6.8971,6.8971,0,0,1,.2695-2.0254,4.0642,4.0642,0,0,1,.77-1.4678A3.2032,3.2032,0,0,1,72.96,6.0615,4.0771,4.0771,0,0,1,74.5625,5.76a4.13,4.13,0,0,1,1.6143.3017,3.2125,3.2125,0,0,1,1.2187.8926,4.0953,4.0953,0,0,1,.77,1.4678,6.9322,6.9322,0,0,1,.2686,2.0254Zm-5.7715-.7422,3.7988-2.8281a3.1275,3.1275,0,0,0-.5342-1.7979,1.6484,1.6484,0,0,0-1.3652-.583,1.625,1.625,0,0,0-1.4268.6768,3.6618,3.6618,0,0,0-.4726,2.0791Zm3.8154-1.2959-3.8,2.8291q.1479,2.332,1.9,2.3311,1.8984,0,1.8994-2.7793Z"/><path d="M4,12a8.0106,8.0106,0,0,1,8-8V2a10,10,0,0,0,0,20V20A8.0106,8.0106,0,0,1,4,12Z"/><path d="M87,12A10.0036,10.0036,0,0,0,77,2V4a8,8,0,0,1,0,16v2A10.0036,10.0036,0,0,0,87,12Z"/><rect x="12" y="20" width="65" height="2"/><rect x="12" y="2" width="65" height="2"/></svg>