<svg id="Ebene_1" data-name="Ebene 1" xmlns="http://www.w3.org/2000/svg" viewBox="0 0 59 24"><title>icon</title><path d="M12.82,16.2031h5.6582v1.5977H10.8643V5.9307H12.82Z"/><path d="M28.6611,16.3174a4.11,4.11,0,0,1-.71.66,4.6239,4.6239,0,0,1-.9131.5215,5.6118,5.6118,0,0,1-1.0957.3428,6.2488,6.2488,0,0,1-1.26.1221,4.14,4.14,0,0,1-1.8916-.416,4.0884,4.0884,0,0,1-1.39-1.1368,5.1423,5.1423,0,0,1-.8643-1.7,7.3686,7.3686,0,0,1-.3057-2.1035V11.1406a7.3014,7.3014,0,0,1,.293-2.1035,5.3429,5.3429,0,0,1,.8438-1.7041,4.0319,4.0319,0,0,1,1.35-1.1455,3.8736,3.8736,0,0,1,1.8261-.42,4.9991,4.9991,0,0,1,1.6465.2529,3.5742,3.5742,0,0,1,1.2471.7295,3.4624,3.4624,0,0,1,.8281,1.1621,4.8749,4.8749,0,0,1,.3867,1.5322H26.7285A3.8463,3.8463,0,0,0,26.5,8.58a2,2,0,0,0-.415-.6524,1.7373,1.7373,0,0,0-.6319-.4111,2.4531,2.4531,0,0,0-.8769-.1426,1.8264,1.8264,0,0,0-1.0635.3057,2.4452,2.4452,0,0,0-.7383.8232,4.06,4.06,0,0,0-.4316,1.1983,7.4653,7.4653,0,0,0-.1465,1.4228v1.4834a7.2414,7.2414,0,0,0,.15,1.419,3.9368,3.9368,0,0,0,.4482,1.1943,2.4419,2.4419,0,0,0,.7871.8272,2.1384,2.1384,0,0,0,1.1573.3183,4.6327,4.6327,0,0,0,.5712-.0371,3.22,3.22,0,0,0,.5577-.1182,2.2917,2.2917,0,0,0,.4853-.208,1.1419,1.1419,0,0,0,.3584-.3134l.0166-2.3721H24.585V11.792h4.06Z"/><path d="M32.8184,13.252v4.5488H30.8613V5.9307H34.832a5.21,5.21,0,0,1,1.6426.2656,3.8164,3.8164,0,0,1,1.3008.7334,3.3368,3.3368,0,0,1,.8516,1.1572,3.7111,3.7111,0,0,1,.3056,1.5371,3.5592,3.5592,0,0,1-.3056,1.5,3.3323,3.3323,0,0,1-.8516,1.1416,3.8329,3.8329,0,0,1-1.3008.7256,5.3266,5.3266,0,0,1-1.6426.2608Zm0-1.5821H34.832a2.4573,2.4573,0,0,0,.8887-.15,1.95,1.95,0,0,0,.668-.42,1.7918,1.7918,0,0,0,.4238-.6445,2.2,2.2,0,0,0,.1475-.8145,2.4012,2.4012,0,0,0-.1475-.8564,1.8805,1.8805,0,0,0-.4238-.6729,1.9,1.9,0,0,0-.668-.4355,2.4971,2.4971,0,0,0-.8887-.1631H32.8184Z"/><path d="M42.8789,16.2031h5.6572v1.5977H40.9219V5.9307h1.957Z"/><path d="M4,12a8.0106,8.0106,0,0,1,8-8V2a10,10,0,0,0,0,20V20A8.0106,8.0106,0,0,1,4,12Z"/><path d="M57,12A10.0036,10.0036,0,0,0,47,2V4a8,8,0,0,1,0,16v2A10.0036,10.0036,0,0,0,57,12Z"/><rect x="12" y="20" width="35" height="2"/><rect x="12" y="2" width="35" height="2"/></svg>