<svg id="Ebene_1" data-name="Ebene 1" xmlns="http://www.w3.org/2000/svg" viewBox="0 0 49 24"><title>icon</title><path d="M10.9463,5.9307h7.06v1.622H15.4385v8.6338h2.5683v1.6143h-7.06V16.1865H13.457V7.5527H10.9463Z"/><path d="M26.8682,14.7432a1.5415,1.5415,0,0,0-.1748-.7452,1.7947,1.7947,0,0,0-.4971-.5673,3.4206,3.4206,0,0,0-.7666-.4278,10.2277,10.2277,0,0,0-.9658-.3379,10.8623,10.8623,0,0,1-1.3819-.5058,5.3189,5.3189,0,0,1-1.2148-.7373,3.5876,3.5876,0,0,1-.8643-1.02,2.682,2.682,0,0,1-.33-1.3486,2.8226,2.8226,0,0,1,.33-1.374,3.2063,3.2063,0,0,1,.8848-1.0313,4.1124,4.1124,0,0,1,1.2881-.6523,5.1206,5.1206,0,0,1,1.5322-.2285,4.7465,4.7465,0,0,1,1.6016.2656,4.0834,4.0834,0,0,1,1.3047.7412A3.5406,3.5406,0,0,1,28.499,7.916a3.3764,3.3764,0,0,1,.334,1.4717H26.877a2.854,2.854,0,0,0-.1924-.8193,1.8274,1.8274,0,0,0-1.0879-1.0557,2.5718,2.5718,0,0,0-.9053-.1475,2.7764,2.7764,0,0,0-.8144.1143,1.8826,1.8826,0,0,0-.6485.335,1.565,1.565,0,0,0-.4277.5293,1.5453,1.5453,0,0,0-.1553.7011,1.2332,1.2332,0,0,0,.2119.7217,2.0441,2.0441,0,0,0,.5547.5342,3.8392,3.8392,0,0,0,.7861.3955c.2969.1113.6045.2129.9258.3057a9.7075,9.7075,0,0,1,1.418.5419,5.096,5.096,0,0,1,1.19.7745,3.478,3.478,0,0,1,.8155,1.0478,2.9694,2.9694,0,0,1,.3017,1.3613,2.8259,2.8259,0,0,1-.334,1.3936,3.08,3.08,0,0,1-.8974,1.0107,4.06,4.06,0,0,1-1.3037.6162,5.72,5.72,0,0,1-1.55.2081,5.627,5.627,0,0,1-1.0839-.1065,5.1272,5.1272,0,0,1-1.0313-.3174,4.5753,4.5753,0,0,1-.917-.5263,3.691,3.691,0,0,1-.7383-.7256,3.3523,3.3523,0,0,1-.4931-.9209,3.5225,3.5225,0,0,1-.1875-1.1211h1.9648a2.5762,2.5762,0,0,0,.2363.9375,1.9342,1.9342,0,0,0,.5225.664,2.2158,2.2158,0,0,0,.7617.3995,3.267,3.267,0,0,0,.9658.1347,3.0991,3.0991,0,0,0,.8243-.1054,2.0685,2.0685,0,0,0,.6679-.3145,1.4974,1.4974,0,0,0,.4483-.5137A1.4466,1.4466,0,0,0,26.8682,14.7432Z"/><path d="M38.7383,14.1563a4.7645,4.7645,0,0,1-.4082,1.5615,3.7285,3.7285,0,0,1-2.1319,1.9814,4.6159,4.6159,0,0,1-1.6259.2725,4.0419,4.0419,0,0,1-1.8916-.42,3.9039,3.9039,0,0,1-1.3448-1.1368,5.0186,5.0186,0,0,1-.8076-1.68,7.8616,7.8616,0,0,1-.2773-2.0547V11.0586a7.59,7.59,0,0,1,.2861-2.05,5.1067,5.1067,0,0,1,.8193-1.6875A3.9375,3.9375,0,0,1,32.7051,6.18a4.0022,4.0022,0,0,1,1.875-.42,4.7144,4.7144,0,0,1,1.6719.2773,3.6159,3.6159,0,0,1,1.2548.7822,3.7353,3.7353,0,0,1,.8321,1.2315,5.532,5.532,0,0,1,.3994,1.6142h-1.957a3.9543,3.9543,0,0,0-.1993-.95,2.2851,2.2851,0,0,0-.4121-.7334,1.69,1.69,0,0,0-.6562-.4687A2.4248,2.4248,0,0,0,34.58,7.35a1.9392,1.9392,0,0,0-1.1084.3018,2.2611,2.2611,0,0,0-.7256.8105,3.8678,3.8678,0,0,0-.3955,1.1787,8.01,8.01,0,0,0-.1182,1.4014v1.6387a8.2826,8.2826,0,0,0,.1182,1.4394,3.9482,3.9482,0,0,0,.3877,1.1778,2.1211,2.1211,0,0,0,.7168.7988,1.9923,1.9923,0,0,0,1.1172.2939,2.0264,2.0264,0,0,0,1.5654-.583,2.7322,2.7322,0,0,0,.6357-1.6513Z"/><path d="M4,12a8.0106,8.0106,0,0,1,8-8V2a10,10,0,0,0,0,20V20A8.0106,8.0106,0,0,1,4,12Z"/><path d="M47,12A10.0036,10.0036,0,0,0,37,2V4a8,8,0,0,1,0,16v2A10.0036,10.0036,0,0,0,47,12Z"/><rect x="12" y="20" width="25" height="2"/><rect x="12" y="2" width="25" height="2"/></svg>