<svg id="Ebene_1" data-name="Ebene 1" xmlns="http://www.w3.org/2000/svg" viewBox="0 0 89 24"><title>icon</title><path d="M18.6123,16.3174a4.14,4.14,0,0,1-.709.66,4.6239,4.6239,0,0,1-.9131.5215,5.5994,5.5994,0,0,1-1.0966.3428,6.2351,6.2351,0,0,1-1.26.1221,4.1353,4.1353,0,0,1-1.8906-.416,4.0932,4.0932,0,0,1-1.3907-1.1368,5.1421,5.1421,0,0,1-.8642-1.7,7.4,7.4,0,0,1-.3057-2.1035V11.1406a7.2669,7.2669,0,0,1,.294-2.1035A5.3017,5.3017,0,0,1,11.32,7.333a4.0285,4.0285,0,0,1,1.3486-1.1455,3.8765,3.8765,0,0,1,1.8262-.42,5.01,5.01,0,0,1,1.6475.2529A3.5729,3.5729,0,0,1,17.39,6.75a3.4588,3.4588,0,0,1,.8272,1.1621,4.8779,4.8779,0,0,1,.3877,1.5322H16.6807a3.8462,3.8462,0,0,0-.2286-.8642,2.0173,2.0173,0,0,0-.416-.6524,1.736,1.736,0,0,0-.6318-.4111,2.4445,2.4445,0,0,0-.876-.1426,1.8312,1.8312,0,0,0-1.0644.3057,2.4426,2.4426,0,0,0-.7373.8232,4.0894,4.0894,0,0,0-.4327,1.1983,7.622,7.622,0,0,0-.1464,1.4228v1.4834a7.2331,7.2331,0,0,0,.1513,1.419,3.9134,3.9134,0,0,0,.4483,1.1943,2.4391,2.4391,0,0,0,.7861.8272,2.1441,2.1441,0,0,0,1.1582.3183,4.606,4.606,0,0,0,.57-.0371,3.25,3.25,0,0,0,.5586-.1182,2.3127,2.3127,0,0,0,.4854-.208,1.1542,1.1542,0,0,0,.3584-.3134l.0166-2.3721H14.5361V11.792h4.06Z"/><path d="M22.7705,13.252v4.5488h-1.957V5.9307h3.9707a5.21,5.21,0,0,1,1.6426.2656,3.815,3.815,0,0,1,1.3007.7334,3.3368,3.3368,0,0,1,.8516,1.1572,3.7111,3.7111,0,0,1,.3057,1.5371,3.5593,3.5593,0,0,1-.3057,1.5,3.3323,3.3323,0,0,1-.8516,1.1416,3.8315,3.8315,0,0,1-1.3007.7256,5.3271,5.3271,0,0,1-1.6426.2608Zm0-1.5821h2.0137a2.458,2.458,0,0,0,.8887-.15,1.9488,1.9488,0,0,0,.6679-.42,1.7892,1.7892,0,0,0,.4238-.6445,2.1982,2.1982,0,0,0,.1475-.8145,2.399,2.399,0,0,0-.1475-.8564,1.8778,1.8778,0,0,0-.4238-.6729,1.899,1.899,0,0,0-.6679-.4355,2.4979,2.4979,0,0,0-.8887-.1631H22.7705Z"/><path d="M32.83,16.2031h5.6582v1.5977H30.874V5.9307H32.83Z"/><path d="M48.0508,13.3818h-6.53V11.8086h6.53Z"/><path d="M58.3389,17.8008H50.3662V16.4561l3.8643-4.2149q.4892-.5463.8193-.9668a5.9087,5.9087,0,0,0,.5254-.7705,2.9,2.9,0,0,0,.2773-.6514,2.321,2.321,0,0,0,.0821-.6113,2.1949,2.1949,0,0,0-.127-.7549,1.7365,1.7365,0,0,0-.3584-.5947,1.6248,1.6248,0,0,0-.5625-.3877,1.9017,1.9017,0,0,0-.7383-.1387,1.9569,1.9569,0,0,0-1.5605.5791,2.3574,2.3574,0,0,0-.502,1.5977H50.13a3.8332,3.8332,0,0,1,.2812-1.4629,3.5178,3.5178,0,0,1,.8067-1.2021,3.8088,3.8088,0,0,1,1.2763-.8116,4.95,4.95,0,0,1,3.253-.0449,3.3133,3.3133,0,0,1,1.1572.7051,2.9792,2.9792,0,0,1,.7178,1.0723,3.676,3.676,0,0,1,.2441,1.3613,3.24,3.24,0,0,1-.18,1.0722,5.1846,5.1846,0,0,1-.497,1.0313,8.5949,8.5949,0,0,1-.7579,1.0312q-.4408.5172-.9541,1.0635l-2.69,2.8867h5.5518Z"/><path d="M63.2305,16.6348a1.5353,1.5353,0,0,1,.0937-.5381,1.2171,1.2171,0,0,1,.2735-.4356,1.267,1.267,0,0,1,.4443-.29,1.8013,1.8013,0,0,1,1.2148,0,1.3125,1.3125,0,0,1,.4483.29,1.2015,1.2015,0,0,1,.2773.4356,1.5353,1.5353,0,0,1,.0938.5381,1.4367,1.4367,0,0,1-.0938.5263,1.1911,1.1911,0,0,1-.2773.42,1.3088,1.3088,0,0,1-.4483.2812,1.8664,1.8664,0,0,1-1.2148,0,1.2631,1.2631,0,0,1-.4443-.2812,1.2063,1.2063,0,0,1-.2735-.42A1.4366,1.4366,0,0,1,63.2305,16.6348Z"/><path d="M78.4346,13.2842a7.0145,7.0145,0,0,1-.2647,2.0263,4.07,4.07,0,0,1-.7627,1.4668,3.15,3.15,0,0,1-1.2148.8926,4.4445,4.4445,0,0,1-3.22,0,3.1854,3.1854,0,0,1-1.2188-.8926,4.1335,4.1335,0,0,1-.7744-1.4668,6.8059,6.8059,0,0,1-.2734-2.0263V10.4473a6.8971,6.8971,0,0,1,.2695-2.0254,4.0642,4.0642,0,0,1,.77-1.4678A3.2032,3.2032,0,0,1,72.96,6.0615,4.0771,4.0771,0,0,1,74.5625,5.76a4.13,4.13,0,0,1,1.6143.3017,3.2125,3.2125,0,0,1,1.2187.8926,4.0953,4.0953,0,0,1,.77,1.4678,6.9322,6.9322,0,0,1,.2686,2.0254Zm-5.7715-.7422,3.7988-2.8281a3.1275,3.1275,0,0,0-.5342-1.7979,1.6484,1.6484,0,0,0-1.3652-.583,1.625,1.625,0,0,0-1.4268.6768,3.6618,3.6618,0,0,0-.4726,2.0791Zm3.8154-1.2959-3.8,2.8291q.1479,2.332,1.9,2.3311,1.8984,0,1.8994-2.7793Z"/><path d="M4,12a8.0106,8.0106,0,0,1,8-8V2a10,10,0,0,0,0,20V20A8.0106,8.0106,0,0,1,4,12Z"/><path d="M87,12A10.0036,10.0036,0,0,0,77,2V4a8,8,0,0,1,0,16v2A10.0036,10.0036,0,0,0,87,12Z"/><rect x="12" y="20" width="65" height="2"/><rect x="12" y="2" width="65" height="2"/></svg>