<svg id="Ebene_1" data-name="Ebene 1" xmlns="http://www.w3.org/2000/svg" viewBox="0 0 89 24"><title>icon</title><path d="M17.6016,12.4775H12.7188v3.7256h5.7148v1.5977h-7.68V5.9307H18.376V7.5449H12.7188v3.3506h4.8828Z"/><path d="M28.6807,14.1563a4.7639,4.7639,0,0,1-.4073,1.5615,3.8337,3.8337,0,0,1-.8642,1.207,3.7908,3.7908,0,0,1-1.2676.7744,4.6178,4.6178,0,0,1-1.627.2725,4.038,4.038,0,0,1-1.8906-.42,3.9161,3.9161,0,0,1-1.3457-1.1368,5.0151,5.0151,0,0,1-.8066-1.68,7.7823,7.7823,0,0,1-.2774-2.0547V11.0586a7.59,7.59,0,0,1,.2852-2.05,5.1262,5.1262,0,0,1,.8193-1.6875,3.9414,3.9414,0,0,1,1.35-1.1416,4.0022,4.0022,0,0,1,1.875-.42,4.7083,4.7083,0,0,1,1.6709.2773,3.62,3.62,0,0,1,1.2559.7822,3.7178,3.7178,0,0,1,.8311,1.2315,5.4694,5.4694,0,0,1,.3994,1.6142H26.7246a3.9975,3.9975,0,0,0-.2-.95,2.2851,2.2851,0,0,0-.4111-.7334,1.7049,1.7049,0,0,0-.6563-.4687,2.428,2.428,0,0,0-.9336-.1631,1.9424,1.9424,0,0,0-1.1093.3018,2.2685,2.2685,0,0,0-.7256.8105,3.8432,3.8432,0,0,0-.3946,1.1787,8.0105,8.0105,0,0,0-.1181,1.4014v1.6387a8.2829,8.2829,0,0,0,.1181,1.4394,3.9226,3.9226,0,0,0,.3868,1.1778,2.1316,2.1316,0,0,0,.7177.7988,1.9914,1.9914,0,0,0,1.1162.2939,2.0235,2.0235,0,0,0,1.5655-.583,2.72,2.72,0,0,0,.6357-1.6513Z"/><path d="M32.83,16.2031h5.6582v1.5977H30.874V5.9307H32.83Z"/><path d="M48.0508,13.3818h-6.53V11.8086h6.53Z"/><path d="M58.3389,17.8008H50.3662V16.4561l3.8643-4.2149q.4892-.5463.8193-.9668a5.9087,5.9087,0,0,0,.5254-.7705,2.9,2.9,0,0,0,.2773-.6514,2.321,2.321,0,0,0,.0821-.6113,2.1949,2.1949,0,0,0-.127-.7549,1.7365,1.7365,0,0,0-.3584-.5947,1.6248,1.6248,0,0,0-.5625-.3877,1.9017,1.9017,0,0,0-.7383-.1387,1.9569,1.9569,0,0,0-1.5605.5791,2.3574,2.3574,0,0,0-.502,1.5977H50.13a3.8332,3.8332,0,0,1,.2812-1.4629,3.5178,3.5178,0,0,1,.8067-1.2021,3.8088,3.8088,0,0,1,1.2763-.8116,4.95,4.95,0,0,1,3.253-.0449,3.3133,3.3133,0,0,1,1.1572.7051,2.9792,2.9792,0,0,1,.7178,1.0723,3.676,3.676,0,0,1,.2441,1.3613,3.24,3.24,0,0,1-.18,1.0722,5.1846,5.1846,0,0,1-.497,1.0313,8.5949,8.5949,0,0,1-.7579,1.0312q-.4408.5172-.9541,1.0635l-2.69,2.8867h5.5518Z"/><path d="M63.2305,16.6348a1.5353,1.5353,0,0,1,.0937-.5381,1.2171,1.2171,0,0,1,.2735-.4356,1.267,1.267,0,0,1,.4443-.29,1.8013,1.8013,0,0,1,1.2148,0,1.3125,1.3125,0,0,1,.4483.29,1.2015,1.2015,0,0,1,.2773.4356,1.5353,1.5353,0,0,1,.0938.5381,1.4367,1.4367,0,0,1-.0938.5263,1.1911,1.1911,0,0,1-.2773.42,1.3088,1.3088,0,0,1-.4483.2812,1.8664,1.8664,0,0,1-1.2148,0,1.2631,1.2631,0,0,1-.4443-.2812,1.2063,1.2063,0,0,1-.2735-.42A1.4366,1.4366,0,0,1,63.2305,16.6348Z"/><path d="M78.4346,13.2842a7.0145,7.0145,0,0,1-.2647,2.0263,4.07,4.07,0,0,1-.7627,1.4668,3.15,3.15,0,0,1-1.2148.8926,4.4445,4.4445,0,0,1-3.22,0,3.1854,3.1854,0,0,1-1.2188-.8926,4.1335,4.1335,0,0,1-.7744-1.4668,6.8059,6.8059,0,0,1-.2734-2.0263V10.4473a6.8971,6.8971,0,0,1,.2695-2.0254,4.0642,4.0642,0,0,1,.77-1.4678A3.2032,3.2032,0,0,1,72.96,6.0615,4.0771,4.0771,0,0,1,74.5625,5.76a4.13,4.13,0,0,1,1.6143.3017,3.2125,3.2125,0,0,1,1.2187.8926,4.0953,4.0953,0,0,1,.77,1.4678,6.9322,6.9322,0,0,1,.2686,2.0254Zm-5.7715-.7422,3.7988-2.8281a3.1275,3.1275,0,0,0-.5342-1.7979,1.6484,1.6484,0,0,0-1.3652-.583,1.625,1.625,0,0,0-1.4268.6768,3.6618,3.6618,0,0,0-.4726,2.0791Zm3.8154-1.2959-3.8,2.8291q.1479,2.332,1.9,2.3311,1.8984,0,1.8994-2.7793Z"/><path d="M4,12a8.0106,8.0106,0,0,1,8-8V2a10,10,0,0,0,0,20V20A8.0106,8.0106,0,0,1,4,12Z"/><path d="M87,12A10.0036,10.0036,0,0,0,77,2V4a8,8,0,0,1,0,16v2A10.0036,10.0036,0,0,0,87,12Z"/><rect x="12" y="20" width="65" height="2"/><rect x="12" y="2" width="65" height="2"/></svg>