<svg id="Ebene_1" data-name="Ebene 1" xmlns="http://www.w3.org/2000/svg" viewBox="0 0 59 24"><title>icon</title><path d="M18.3555,17.8008H16.3828l-3.8642-8.169-.0079,8.169H10.5293V5.9307h1.9814l3.8477,8.1445.0166-8.1445h1.98Z"/><path d="M28.71,14.1563a4.767,4.767,0,0,1-.4082,1.5615A3.7285,3.7285,0,0,1,26.17,17.6992a4.616,4.616,0,0,1-1.626.2725,4.0422,4.0422,0,0,1-1.8916-.42,3.9045,3.9045,0,0,1-1.3447-1.1368,5.0167,5.0167,0,0,1-.8076-1.68,7.8616,7.8616,0,0,1-.2773-2.0547V11.0586a7.5865,7.5865,0,0,1,.2861-2.05,5.1067,5.1067,0,0,1,.8193-1.6875A3.9375,3.9375,0,0,1,22.6768,6.18a4.0016,4.0016,0,0,1,1.875-.42,4.7134,4.7134,0,0,1,1.6718.2773,3.6154,3.6154,0,0,1,1.2549.7822,3.7335,3.7335,0,0,1,.832,1.2315A5.5289,5.5289,0,0,1,28.71,9.665H26.7529a3.95,3.95,0,0,0-.1992-.95,2.2869,2.2869,0,0,0-.4121-.7334,1.69,1.69,0,0,0-.6562-.4687,2.4252,2.4252,0,0,0-.9336-.1631,1.9392,1.9392,0,0,0-1.1084.3018,2.2593,2.2593,0,0,0-.7256.8105,3.8678,3.8678,0,0,0-.3955,1.1787,8.01,8.01,0,0,0-.1182,1.4014v1.6387a8.2826,8.2826,0,0,0,.1182,1.4394,3.9482,3.9482,0,0,0,.3877,1.1778,2.12,2.12,0,0,0,.7168.7988,1.9922,1.9922,0,0,0,1.1171.2939,2.0264,2.0264,0,0,0,1.5655-.583,2.7322,2.7322,0,0,0,.6357-1.6513Z"/><path d="M36.8779,14.7432a1.5415,1.5415,0,0,0-.1748-.7452,1.7955,1.7955,0,0,0-.497-.5673,3.4206,3.4206,0,0,0-.7666-.4278,10.22,10.22,0,0,0-.9659-.3379,10.861,10.861,0,0,1-1.3818-.5058,5.3167,5.3167,0,0,1-1.2148-.7373,3.586,3.586,0,0,1-.8643-1.02,2.6821,2.6821,0,0,1-.33-1.3486,2.8226,2.8226,0,0,1,.33-1.374,3.2039,3.2039,0,0,1,.8848-1.0313,4.1129,4.1129,0,0,1,1.288-.6523,5.1208,5.1208,0,0,1,1.5323-.2285,4.7455,4.7455,0,0,1,1.6015.2656,4.0813,4.0813,0,0,1,1.3047.7412,3.5408,3.5408,0,0,1,.8848,1.1416,3.3764,3.3764,0,0,1,.334,1.4717H36.8867a2.8507,2.8507,0,0,0-.1924-.8193,1.8267,1.8267,0,0,0-1.0879-1.0557,2.5712,2.5712,0,0,0-.9052-.1475,2.777,2.777,0,0,0-.8145.1143,1.8812,1.8812,0,0,0-.6484.335,1.5665,1.5665,0,0,0-.4278.5293,1.5453,1.5453,0,0,0-.1552.7011,1.2332,1.2332,0,0,0,.2119.7217,2.0441,2.0441,0,0,0,.5547.5342,3.8392,3.8392,0,0,0,.7861.3955c.2969.1113.6045.2129.9258.3057a9.7119,9.7119,0,0,1,1.418.5419,5.0981,5.0981,0,0,1,1.19.7745,3.4776,3.4776,0,0,1,.8154,1.0478,2.9682,2.9682,0,0,1,.3018,1.3613,2.827,2.827,0,0,1-.334,1.3936,3.0807,3.0807,0,0,1-.8975,1.0107,4.0593,4.0593,0,0,1-1.3037.6162,5.7183,5.7183,0,0,1-1.55.2081A5.6272,5.6272,0,0,1,33.69,17.85a5.1263,5.1263,0,0,1-1.0312-.3174,4.5753,4.5753,0,0,1-.917-.5263,3.691,3.691,0,0,1-.7383-.7256,3.3526,3.3526,0,0,1-.4932-.9209,3.5281,3.5281,0,0,1-.1875-1.1211h1.9649a2.5722,2.5722,0,0,0,.2363.9375,1.9342,1.9342,0,0,0,.5225.664,2.2158,2.2158,0,0,0,.7617.3995,3.267,3.267,0,0,0,.9658.1347,3.0978,3.0978,0,0,0,.8242-.1054,2.0691,2.0691,0,0,0,.668-.3145,1.4981,1.4981,0,0,0,.4482-.5137A1.4466,1.4466,0,0,0,36.8779,14.7432Z"/><path d="M46.49,15.0449H42.78l-.8145,2.7559H39.9434L43.8,5.9307h1.72l3.7832,11.87H47.2891ZM43.2783,13.374H46.001L44.6563,8.7188Z"/><path d="M4,12a8.0106,8.0106,0,0,1,8-8V2a10,10,0,0,0,0,20V20A8.0106,8.0106,0,0,1,4,12Z"/><path d="M57,12A10.0036,10.0036,0,0,0,47,2V4a8,8,0,0,1,0,16v2A10.0036,10.0036,0,0,0,57,12Z"/><rect x="12" y="20" width="35" height="2"/><rect x="12" y="2" width="35" height="2"/></svg>