<svg id="Ebene_1" data-name="Ebene 1" xmlns="http://www.w3.org/2000/svg" viewBox="0 0 24 24"><title>icon</title><path d="M7.9259,11.2235a1.7481,1.7481,0,0,1,.2052-.5952,1.1963,1.1963,0,0,1,.4037-.4242,1.2139,1.2139,0,0,1,.6226-.1573,1.24,1.24,0,0,1,.431.0889,1.1041,1.1041,0,0,1,.3557.2463,1.3153,1.3153,0,0,1,.2326.3626,1.1963,1.1963,0,0,1,.0958.4378h1.2246a2.4471,2.4471,0,0,0-.1915-.8825,2.0543,2.0543,0,0,0-.4789-.691,2.2339,2.2339,0,0,0-.7389-.4515A2.6421,2.6421,0,0,0,9.1368,9a2.6743,2.6743,0,0,0-1.163.2326,2.3531,2.3531,0,0,0-.821.6294,2.5733,2.5733,0,0,0-.4858.9305,4.0072,4.0072,0,0,0-.1641,1.122v.1847a4.0061,4.0061,0,0,0,.1573,1.122,2.4857,2.4857,0,0,0,.4858.9236,2.3346,2.3346,0,0,0,.8209.6226A2.7767,2.7767,0,0,0,9.13,15a2.608,2.608,0,0,0,.9031-.1574,2.33,2.33,0,0,0,.7388-.431,2.0872,2.0872,0,0,0,.5063-.6431,1.8412,1.8412,0,0,0,.2053-.7867H10.2588a.9735.9735,0,0,1-.1026.3968,1.0087,1.0087,0,0,1-.2463.3147,1.0781,1.0781,0,0,1-.3557.2052,1.3574,1.3574,0,0,1-.41.0684,1.1617,1.1617,0,0,1-.6089-.1573,1.1972,1.1972,0,0,1-.4037-.4242,1.787,1.787,0,0,1-.2052-.602,4.6128,4.6128,0,0,1-.0547-.6842v-.1847A4.5592,4.5592,0,0,1,7.9259,11.2235Z"/><path d="M12,2A10,10,0,1,0,22,12,10.0036,10.0036,0,0,0,12,2Zm0,18a8,8,0,1,1,8-8A8.0106,8.0106,0,0,1,12,20Z"/><path d="M13.9259,11.2235a1.7481,1.7481,0,0,1,.2052-.5952,1.1963,1.1963,0,0,1,.4037-.4242,1.2139,1.2139,0,0,1,.6226-.1573,1.24,1.24,0,0,1,.431.0889,1.1041,1.1041,0,0,1,.3557.2463,1.3153,1.3153,0,0,1,.2326.3626,1.1963,1.1963,0,0,1,.0958.4378h1.2246a2.4471,2.4471,0,0,0-.1915-.8825,2.0543,2.0543,0,0,0-.4789-.691,2.2339,2.2339,0,0,0-.7389-.4515A2.6421,2.6421,0,0,0,15.1368,9a2.6743,2.6743,0,0,0-1.163.2326,2.3531,2.3531,0,0,0-.821.6294,2.5733,2.5733,0,0,0-.4858.9305,4.0072,4.0072,0,0,0-.1641,1.122v.1847a4.0061,4.0061,0,0,0,.1573,1.122,2.4857,2.4857,0,0,0,.4858.9236,2.3346,2.3346,0,0,0,.8209.6226A2.7767,2.7767,0,0,0,15.13,15a2.608,2.608,0,0,0,.9031-.1574,2.33,2.33,0,0,0,.7388-.431,2.0872,2.0872,0,0,0,.5063-.6431,1.8412,1.8412,0,0,0,.2053-.7867H16.2588a.9735.9735,0,0,1-.1026.3968,1.0087,1.0087,0,0,1-.2463.3147,1.0781,1.0781,0,0,1-.3557.2052,1.3574,1.3574,0,0,1-.41.0684,1.1617,1.1617,0,0,1-.6089-.1573,1.1972,1.1972,0,0,1-.4037-.4242,1.787,1.787,0,0,1-.2052-.602,4.6128,4.6128,0,0,1-.0547-.6842v-.1847A4.5592,4.5592,0,0,1,13.9259,11.2235Z"/></svg>