<svg id="Ebene_1" data-name="Ebene 1" xmlns="http://www.w3.org/2000/svg" viewBox="0 0 69 24"><title>icon</title><path d="M12.9814,5.9307l1.4756,5.1279,1.6309-5.1279h2.43v11.87H16.6748V13.7246l.1143-5.2012-1.8262,5.6905H13.9355L12.2813,8.7188l.1132,5.0058v4.0762H10.5527V5.9307Z"/><path d="M26.85,14.7432a1.5306,1.5306,0,0,0-.1758-.7452,1.771,1.771,0,0,0-.497-.5673,3.4007,3.4007,0,0,0-.7666-.4278,10.1218,10.1218,0,0,0-.9659-.3379,10.9172,10.9172,0,0,1-1.3818-.5058,5.3384,5.3384,0,0,1-1.2148-.7373,3.6185,3.6185,0,0,1-.8643-1.02,2.6924,2.6924,0,0,1-.33-1.3486,2.8338,2.8338,0,0,1,.33-1.374,3.2286,3.2286,0,0,1,.8848-1.0313,4.1124,4.1124,0,0,1,1.2881-.6523A5.1267,5.1267,0,0,1,24.69,5.7676a4.746,4.746,0,0,1,1.6015.2656,4.1029,4.1029,0,0,1,1.3047.7412A3.5242,3.5242,0,0,1,28.48,7.916a3.377,3.377,0,0,1,.335,1.4717H26.8574a2.85,2.85,0,0,0-.1914-.8193,1.8974,1.8974,0,0,0-.4238-.6407,1.8713,1.8713,0,0,0-.6651-.415,2.5694,2.5694,0,0,0-.9042-.1475,2.7839,2.7839,0,0,0-.8155.1143,1.8994,1.8994,0,0,0-.6484.335,1.588,1.588,0,0,0-.4277.5293,1.544,1.544,0,0,0-.1553.7011,1.2338,1.2338,0,0,0,.2129.7217,2.0256,2.0256,0,0,0,.5537.5342,3.8482,3.8482,0,0,0,.7871.3955q.4439.1669.9248.3057a9.6752,9.6752,0,0,1,1.4189.5419,5.1176,5.1176,0,0,1,1.1905.7745,3.49,3.49,0,0,1,.8144,1.0478,2.9682,2.9682,0,0,1,.3018,1.3613,2.8259,2.8259,0,0,1-.334,1.3936A3.0676,3.0676,0,0,1,27.6,17.1318a4.0647,4.0647,0,0,1-1.3047.6162,5.7057,5.7057,0,0,1-1.5488.2081,5.62,5.62,0,0,1-1.084-.1065,5.087,5.087,0,0,1-1.0312-.3174,4.6108,4.6108,0,0,1-.918-.5263,3.66,3.66,0,0,1-.7373-.7256,3.3261,3.3261,0,0,1-.4932-.9209,3.4731,3.4731,0,0,1-.1875-1.1211H22.26a2.5523,2.5523,0,0,0,.2363.9375,1.9317,1.9317,0,0,0,.5215.664,2.23,2.23,0,0,0,.7627.3995,3.2575,3.2575,0,0,0,.9658.1347,3.0956,3.0956,0,0,0,.8232-.1054,2.0646,2.0646,0,0,0,.669-.3145,1.5194,1.5194,0,0,0,.4482-.5137A1.458,1.458,0,0,0,26.85,14.7432Z"/><path d="M38.0508,13.3818h-6.53V11.8086h6.53Z"/><path d="M42.8281,13.252v4.5488h-1.957V5.9307h3.9707a5.21,5.21,0,0,1,1.6426.2656,3.8164,3.8164,0,0,1,1.3008.7334,3.3378,3.3378,0,0,1,.8515,1.1572,3.7111,3.7111,0,0,1,.3057,1.5371,3.5593,3.5593,0,0,1-.3057,1.5,3.3333,3.3333,0,0,1-.8515,1.1416,3.8329,3.8329,0,0,1-1.3008.7256,5.3271,5.3271,0,0,1-1.6426.2608Zm0-1.5821h2.0137a2.4576,2.4576,0,0,0,.8887-.15,1.9488,1.9488,0,0,0,.6679-.42,1.7908,1.7908,0,0,0,.4239-.6445,2.2,2.2,0,0,0,.1474-.8145,2.4012,2.4012,0,0,0-.1474-.8564,1.8794,1.8794,0,0,0-.4239-.6729,1.899,1.899,0,0,0-.6679-.4355,2.4975,2.4975,0,0,0-.8887-.1631H42.8281Z"/><path d="M52.8877,16.2031h5.6582v1.5977H50.9316V5.9307h1.9561Z"/><path d="M4,12a8.0106,8.0106,0,0,1,8-8V2a10,10,0,0,0,0,20V20A8.0106,8.0106,0,0,1,4,12Z"/><path d="M67,12A10.0036,10.0036,0,0,0,57,2V4a8,8,0,0,1,0,16v2A10.0036,10.0036,0,0,0,67,12Z"/><rect x="12" y="20" width="45" height="2"/><rect x="12" y="2" width="45" height="2"/></svg>