<svg id="Ebene_1" data-name="Ebene 1" xmlns="http://www.w3.org/2000/svg" viewBox="0 0 24 24"><title>icon</title><path d="M11.2222,7.5821q-.9879.5649-1.5976.974a7.4,7.4,0,0,0-1.24,1.079,4.9251,4.9251,0,0,0-.9039,1.3191,6.0209,6.0209,0,0,0-.4415,1.7815H8.048a3.0426,3.0426,0,0,1,2.05.6412,2.344,2.344,0,0,1,.7462,1.8814,2.4827,2.4827,0,0,1-.6621,1.65,2.2759,2.2759,0,0,1-1.8183.7673A2.86,2.86,0,0,1,5.7778,16.49,5.595,5.595,0,0,1,5,13.3734a5.2735,5.2735,0,0,1,.5886-2.4858A8.846,8.846,0,0,1,7.018,8.8836a10.3772,10.3772,0,0,1,1.8288-1.531q.9671-.6306,1.6187-1.0283Zm7.7778,0q-.9881.5649-1.5976.974a7.4,7.4,0,0,0-1.24,1.079,4.8667,4.8667,0,0,0-.9145,1.33,6.1173,6.1173,0,0,0-.4309,1.771h1.009a3.0426,3.0426,0,0,1,2.05.6412,2.344,2.344,0,0,1,.7462,1.8814,2.4827,2.4827,0,0,1-.6621,1.65,2.2759,2.2759,0,0,1-1.8184.7673,2.8594,2.8594,0,0,1-2.5855-1.186,5.5942,5.5942,0,0,1-.7778-3.1163,5.2735,5.2735,0,0,1,.5886-2.4858,8.8429,8.8429,0,0,1,1.4294-2.004,10.3772,10.3772,0,0,1,1.8288-1.531q.9671-.6306,1.6186-1.0283Z"/></svg>