<svg id="Ebene_1" data-name="Ebene 1" xmlns="http://www.w3.org/2000/svg" viewBox="0 0 24 24"><title>icon</title><path d="M12,1A9.9549,9.9549,0,0,0,5.5953,3.3253a10.0707,10.0707,0,0,0-1.27,1.27A9.9955,9.9955,0,0,0,18.4047,18.6747a10.064,10.064,0,0,0,1.27-1.27A9.9955,9.9955,0,0,0,12,1Zm0,18A7.9892,7.9892,0,0,1,5.75,6.02l2.71,2.71c.0325,1.44,1.1108,2.2458,2.7421,2.7422l2.583,2.583a2.0128,2.0128,0,0,1-1.7209.6273c-1.4878,0-2.0728-.6644-2.1522-1.5167H8.3239a3.0257,3.0257,0,0,0,2.6578,2.7661V17.5h2.1666V15.9472A3.6464,3.6464,0,0,0,14.89,15.16l2.09,2.09A7.9545,7.9545,0,0,1,12,19Zm6.25-3.02-2.5755-2.5755.002-.0208c0-1.9385-1.5676-2.6668-3.1238-3.101L10.3037,8.0337a2.0141,2.0141,0,0,1,1.7613-.717c1.2856,0,1.7622.6138,1.8055,1.5166h1.5962a2.8789,2.8789,0,0,0-2.3184-2.7516V4.5H10.9817V6.06A3.7134,3.7134,0,0,0,9.21,6.94L7.02,4.75A7.9892,7.9892,0,0,1,18.25,15.98Z"/></svg>