<svg id="Ebene_1" data-name="Ebene 1" xmlns="http://www.w3.org/2000/svg" viewBox="0 0 59 24"><title>icon</title><path d="M12.584,16.2031h5.9922v1.5977h-8.291l-.0079-1.32,5.8038-8.9356H10.3262V5.9307h8.0625l.0078,1.2881Z"/><path d="M22.84,16.2031H28.498v1.5977H20.8838V5.9307H22.84Z"/><path d="M30.9756,5.9307h7.06v1.622H35.4678v8.6338h2.5683v1.6143h-7.06V16.1865h2.5107V7.5527H30.9756Z"/><path d="M40.7266,17.8008V5.9307h3.791a6.8393,6.8393,0,0,1,1.6015.1963,3.9207,3.9207,0,0,1,1.3047.5781,2.7675,2.7675,0,0,1,.876.999,2.9956,2.9956,0,0,1,.31,1.4385,2.4241,2.4241,0,0,1-.4893,1.5049,3.1245,3.1245,0,0,1-1.2959.9658,3.0828,3.0828,0,0,1,.8848.3955,2.516,2.516,0,0,1,.6484.6152,2.7723,2.7723,0,0,1,.3994.7949,3.0545,3.0545,0,0,1,.1387.9249,3.3955,3.3955,0,0,1-.31,1.4921,3.0018,3.0018,0,0,1-.8594,1.0762,3.8786,3.8786,0,0,1-1.3047.6563,5.8621,5.8621,0,0,1-1.627.2324Zm1.9648-6.8721h1.875a3.16,3.16,0,0,0,.8193-.1182,1.97,1.97,0,0,0,.6563-.3261,1.6185,1.6185,0,0,0,.44-.53,1.5441,1.5441,0,0,0,.1621-.7217,1.7358,1.7358,0,0,0-.1543-.7666,1.3824,1.3824,0,0,0-.4365-.5215,1.9048,1.9048,0,0,0-.6641-.2978,3.9119,3.9119,0,0,0-.84-.1016H42.6914Zm0,1.4912v3.7832h2.1357a2.696,2.696,0,0,0,.8477-.1426,2.0564,2.0564,0,0,0,.66-.371,1.6953,1.6953,0,0,0,.4365-.5791,1.806,1.806,0,0,0,.1592-.7666,2.2031,2.2031,0,0,0-.1387-.8028,1.618,1.618,0,0,0-.3994-.5986,1.8275,1.8275,0,0,0-.6358-.38,2.6521,2.6521,0,0,0-.84-.1426Z"/><path d="M4,12a8.0106,8.0106,0,0,1,8-8V2a10,10,0,0,0,0,20V20A8.0106,8.0106,0,0,1,4,12Z"/><path d="M57,12A10.0036,10.0036,0,0,0,47,2V4a8,8,0,0,1,0,16v2A10.0036,10.0036,0,0,0,57,12Z"/><rect x="12" y="20" width="35" height="2"/><rect x="12" y="2" width="35" height="2"/></svg>