<svg id="Ebene_1" data-name="Ebene 1" xmlns="http://www.w3.org/2000/svg" viewBox="0 0 89 24"><title>icon</title><path d="M18.6943,12.6318a7.4688,7.4688,0,0,1-.2695,2.0176,5.2915,5.2915,0,0,1-.8027,1.7041,3.9613,3.9613,0,0,1-1.3369,1.1738,3.8747,3.8747,0,0,1-1.8789.4366,3.7556,3.7556,0,0,1-1.8594-.4405,3.9535,3.9535,0,0,1-1.3164-1.1777,5.3493,5.3493,0,0,1-.791-1.7,7.5389,7.5389,0,0,1-.2647-2.0137V11.1162a7.83,7.83,0,0,1,.1182-1.37,6.5661,6.5661,0,0,1,.3506-1.26,5.3605,5.3605,0,0,1,.5791-1.0918,3.6839,3.6839,0,0,1,1.875-1.4228,3.9638,3.9638,0,0,1,1.3-.2041,3.8518,3.8518,0,0,1,1.8789.44,4.0624,4.0624,0,0,1,1.3418,1.1777,5.2476,5.2476,0,0,1,.8066,1.7081,7.5249,7.5249,0,0,1,.2695,2.0224ZM16.73,11.1a8.5622,8.5622,0,0,0-.1221-1.3291,4.01,4.01,0,0,0-.3838-1.1777,2.3571,2.3571,0,0,0-.7129-.84,1.8494,1.8494,0,0,0-1.1132-.3222,1.7961,1.7961,0,0,0-1.0967.3222,2.2838,2.2838,0,0,0-.6924.8438A4.0539,4.0539,0,0,0,12.25,9.7744,9.2324,9.2324,0,0,0,12.14,11.1v1.5322a8.8264,8.8264,0,0,0,.1143,1.3252,4.2043,4.2043,0,0,0,.3623,1.1817,2.3069,2.3069,0,0,0,.6934.8525,1.7828,1.7828,0,0,0,1.0967.3262,1.833,1.833,0,0,0,1.1123-.3262,2.4046,2.4046,0,0,0,.7138-.8476,4.0213,4.0213,0,0,0,.3789-1.1827,8.7847,8.7847,0,0,0,.1182-1.3291Z"/><path d="M26.83,14.7432a1.5415,1.5415,0,0,0-.1748-.7452,1.7947,1.7947,0,0,0-.4971-.5673,3.4183,3.4183,0,0,0-.7666-.4278,10.2277,10.2277,0,0,0-.9658-.3379,10.8623,10.8623,0,0,1-1.3819-.5058,5.3189,5.3189,0,0,1-1.2148-.7373,3.5893,3.5893,0,0,1-.8643-1.02,2.682,2.682,0,0,1-.33-1.3486,2.8226,2.8226,0,0,1,.33-1.374A3.2063,3.2063,0,0,1,21.85,6.6484a4.1135,4.1135,0,0,1,1.2881-.6523A5.1206,5.1206,0,0,1,24.67,5.7676a4.7465,4.7465,0,0,1,1.6016.2656,4.0834,4.0834,0,0,1,1.3047.7412,3.5406,3.5406,0,0,1,.8847,1.1416,3.3764,3.3764,0,0,1,.334,1.4717h-1.956a2.854,2.854,0,0,0-.1924-.8193,1.8267,1.8267,0,0,0-1.0879-1.0557,2.5714,2.5714,0,0,0-.9053-.1475,2.7768,2.7768,0,0,0-.8144.1143,1.8826,1.8826,0,0,0-.6485.335,1.565,1.565,0,0,0-.4277.5293,1.5453,1.5453,0,0,0-.1553.7011,1.2332,1.2332,0,0,0,.2119.7217,2.0441,2.0441,0,0,0,.5547.5342,3.8427,3.8427,0,0,0,.7862.3955c.2968.1113.6044.2129.9257.3057a9.7075,9.7075,0,0,1,1.418.5419,5.096,5.096,0,0,1,1.19.7745,3.478,3.478,0,0,1,.8155,1.0478,2.9694,2.9694,0,0,1,.3017,1.3613,2.8259,2.8259,0,0,1-.334,1.3936,3.08,3.08,0,0,1-.8974,1.0107,4.06,4.06,0,0,1-1.3037.6162,5.7188,5.7188,0,0,1-1.55.2081,5.6272,5.6272,0,0,1-1.084-.1065,5.1272,5.1272,0,0,1-1.0313-.3174,4.578,4.578,0,0,1-.917-.5263,3.6879,3.6879,0,0,1-.7382-.7256,3.35,3.35,0,0,1-.4932-.9209,3.5281,3.5281,0,0,1-.1875-1.1211H22.24a2.5742,2.5742,0,0,0,.2364.9375,1.934,1.934,0,0,0,.5224.664,2.2158,2.2158,0,0,0,.7617.3995,3.2677,3.2677,0,0,0,.9659.1347,3.0988,3.0988,0,0,0,.8242-.1054,2.07,2.07,0,0,0,.668-.3145,1.4981,1.4981,0,0,0,.4482-.5137A1.4466,1.4466,0,0,0,26.83,14.7432Z"/><path d="M32.83,16.2031h5.6582v1.5977H30.874V5.9307H32.83Z"/><path d="M48.0508,13.3818h-6.53V11.8086h6.53Z"/><path d="M52.8037,10.9854H53.97a2.7064,2.7064,0,0,0,.8965-.1348,1.7185,1.7185,0,0,0,.6358-.3789,1.5509,1.5509,0,0,0,.3789-.583,2.1231,2.1231,0,0,0,.1269-.7461,1.8449,1.8449,0,0,0-.4531-1.333A1.8163,1.8163,0,0,0,54.19,7.3408a2.2337,2.2337,0,0,0-.7374.1182,1.7575,1.7575,0,0,0-.5878.3389,1.543,1.543,0,0,0-.3868.53,1.6893,1.6893,0,0,0-.1386.7H50.3906a2.9946,2.9946,0,0,1,.2813-1.2959,3.1278,3.1278,0,0,1,.7822-1.0312,3.7118,3.7118,0,0,1,1.1943-.6846,4.4564,4.4564,0,0,1,1.5166-.249,5.2326,5.2326,0,0,1,1.5411.2158,3.3426,3.3426,0,0,1,1.1982.6406A2.8924,2.8924,0,0,1,57.6787,7.68a3.6159,3.6159,0,0,1,.2774,1.4629A2.5524,2.5524,0,0,1,57.85,9.86a2.7562,2.7562,0,0,1-.3213.7089,3.0853,3.0853,0,0,1-.5469.6407,3.0084,3.0084,0,0,1-.7783.5009,3.032,3.032,0,0,1,.9053.4815,2.6442,2.6442,0,0,1,.5947.6562,2.5374,2.5374,0,0,1,.3262.7784,3.6775,3.6775,0,0,1,.0977.8476,3.4912,3.4912,0,0,1-.3018,1.4834,3.0923,3.0923,0,0,1-.835,1.0967,3.7183,3.7183,0,0,1-1.26.6767,5.3161,5.3161,0,0,1-3.041.0206,3.7155,3.7155,0,0,1-1.2354-.6319,3.1081,3.1081,0,0,1-.8516-1.0439,3.14,3.14,0,0,1-.3183-1.4463h1.9492a1.8511,1.8511,0,0,0,.1377.7207,1.563,1.563,0,0,0,.3955.5625,1.8484,1.8484,0,0,0,.6162.3633,2.3459,2.3459,0,0,0,.8067.13,2.0747,2.0747,0,0,0,1.4638-.4932,1.8516,1.8516,0,0,0,.5332-1.4307,2.2992,2.2992,0,0,0-.1543-.8838,1.5744,1.5744,0,0,0-.4443-.6123,1.87,1.87,0,0,0-.6973-.3545,3.4178,3.4178,0,0,0-.9209-.1142h-1.166Z"/><path d="M63.2305,16.6348a1.5353,1.5353,0,0,1,.0937-.5381,1.2171,1.2171,0,0,1,.2735-.4356,1.267,1.267,0,0,1,.4443-.29,1.8013,1.8013,0,0,1,1.2148,0,1.3125,1.3125,0,0,1,.4483.29,1.2015,1.2015,0,0,1,.2773.4356,1.5353,1.5353,0,0,1,.0938.5381,1.4367,1.4367,0,0,1-.0938.5263,1.1911,1.1911,0,0,1-.2773.42,1.3088,1.3088,0,0,1-.4483.2812,1.8664,1.8664,0,0,1-1.2148,0,1.2631,1.2631,0,0,1-.4443-.2812,1.2063,1.2063,0,0,1-.2735-.42A1.4366,1.4366,0,0,1,63.2305,16.6348Z"/><path d="M78.4346,13.2842a7.0145,7.0145,0,0,1-.2647,2.0263,4.07,4.07,0,0,1-.7627,1.4668,3.15,3.15,0,0,1-1.2148.8926,4.4445,4.4445,0,0,1-3.22,0,3.1854,3.1854,0,0,1-1.2188-.8926,4.1335,4.1335,0,0,1-.7744-1.4668,6.8059,6.8059,0,0,1-.2734-2.0263V10.4473a6.8971,6.8971,0,0,1,.2695-2.0254,4.0642,4.0642,0,0,1,.77-1.4678A3.2032,3.2032,0,0,1,72.96,6.0615,4.0771,4.0771,0,0,1,74.5625,5.76a4.13,4.13,0,0,1,1.6143.3017,3.2125,3.2125,0,0,1,1.2187.8926,4.0953,4.0953,0,0,1,.77,1.4678,6.9322,6.9322,0,0,1,.2686,2.0254Zm-5.7715-.7422,3.7988-2.8281a3.1275,3.1275,0,0,0-.5342-1.7979,1.6484,1.6484,0,0,0-1.3652-.583,1.625,1.625,0,0,0-1.4268.6768,3.6618,3.6618,0,0,0-.4726,2.0791Zm3.8154-1.2959-3.8,2.8291q.1479,2.332,1.9,2.3311,1.8984,0,1.8994-2.7793Z"/><path d="M4,12a8.0106,8.0106,0,0,1,8-8V2a10,10,0,0,0,0,20V20A8.0106,8.0106,0,0,1,4,12Z"/><path d="M87,12A10.0036,10.0036,0,0,0,77,2V4a8,8,0,0,1,0,16v2A10.0036,10.0036,0,0,0,87,12Z"/><rect x="12" y="20" width="65" height="2"/><rect x="12" y="2" width="65" height="2"/></svg>