<svg id="Ebene_1" data-name="Ebene 1" xmlns="http://www.w3.org/2000/svg" viewBox="0 0 49 24"><title>icon</title><path d="M18.65,16.3174a4.14,4.14,0,0,1-.709.66,4.6239,4.6239,0,0,1-.9131.5215,5.5982,5.5982,0,0,1-1.0967.3428,6.2334,6.2334,0,0,1-1.26.1221,4.1353,4.1353,0,0,1-1.8906-.416,4.0923,4.0923,0,0,1-1.3907-1.1368,5.1421,5.1421,0,0,1-.8642-1.7,7.4,7.4,0,0,1-.3057-2.1035V11.1406a7.27,7.27,0,0,1,.2939-2.1035,5.3039,5.3039,0,0,1,.8438-1.7041A4.0285,4.0285,0,0,1,12.707,6.1875a3.8765,3.8765,0,0,1,1.8262-.42,5.01,5.01,0,0,1,1.6475.2529,3.5729,3.5729,0,0,1,1.247.7295,3.4588,3.4588,0,0,1,.8272,1.1621,4.8779,4.8779,0,0,1,.3877,1.5322H16.7188A3.8462,3.8462,0,0,0,16.49,8.58a2.019,2.019,0,0,0-.416-.6524,1.736,1.736,0,0,0-.6318-.4111,2.4445,2.4445,0,0,0-.876-.1426A1.8312,1.8312,0,0,0,13.502,7.68a2.4439,2.4439,0,0,0-.7374.8232,4.0893,4.0893,0,0,0-.4326,1.1983,7.63,7.63,0,0,0-.1465,1.4228v1.4834a7.2407,7.2407,0,0,0,.1514,1.419,3.9109,3.9109,0,0,0,.4483,1.1943,2.4391,2.4391,0,0,0,.7861.8272,2.1441,2.1441,0,0,0,1.1582.3183,4.606,4.606,0,0,0,.57-.0371,3.2519,3.2519,0,0,0,.5586-.1182,2.3127,2.3127,0,0,0,.4854-.208,1.1526,1.1526,0,0,0,.3583-.3134l.0167-2.3721H14.5742V11.792h4.06Z"/><path d="M22.8086,13.252v4.5488h-1.957V5.9307h3.9707a5.209,5.209,0,0,1,1.6425.2656,3.8145,3.8145,0,0,1,1.3008.7334,3.3368,3.3368,0,0,1,.8516,1.1572,3.7111,3.7111,0,0,1,.3057,1.5371,3.5593,3.5593,0,0,1-.3057,1.5,3.3323,3.3323,0,0,1-.8516,1.1416,3.831,3.831,0,0,1-1.3008.7256,5.3259,5.3259,0,0,1-1.6425.2608Zm0-1.5821h2.0137a2.4571,2.4571,0,0,0,.8886-.15,1.9493,1.9493,0,0,0,.668-.42,1.7892,1.7892,0,0,0,.4238-.6445,2.1982,2.1982,0,0,0,.1475-.8145,2.399,2.399,0,0,0-.1475-.8564,1.8778,1.8778,0,0,0-.4238-.6729,1.8994,1.8994,0,0,0-.668-.4355,2.4969,2.4969,0,0,0-.8886-.1631H22.8086Z"/><path d="M32.8682,16.2031h5.6582v1.5977H30.9121V5.9307h1.9561Z"/><path d="M4,12a8.0106,8.0106,0,0,1,8-8V2a10,10,0,0,0,0,20V20A8.0106,8.0106,0,0,1,4,12Z"/><path d="M47,12A10.0036,10.0036,0,0,0,37,2V4a8,8,0,0,1,0,16v2A10.0036,10.0036,0,0,0,47,12Z"/><rect x="12" y="20" width="25" height="2"/><rect x="12" y="2" width="25" height="2"/></svg>