<svg id="Ebene_1" data-name="Ebene 1" xmlns="http://www.w3.org/2000/svg" viewBox="0 0 89 24"><title>icon</title><path d="M10.64,17.8008V5.9307h3.7911a6.8393,6.8393,0,0,1,1.6015.1963,3.9207,3.9207,0,0,1,1.3047.5781,2.7675,2.7675,0,0,1,.876.999,2.9956,2.9956,0,0,1,.31,1.4385,2.4241,2.4241,0,0,1-.4893,1.5049,3.1245,3.1245,0,0,1-1.2959.9658,3.084,3.084,0,0,1,.8848.3955,2.516,2.516,0,0,1,.6484.6152,2.7774,2.7774,0,0,1,.3994.7949,3.0545,3.0545,0,0,1,.1387.9249,3.3941,3.3941,0,0,1-.3106,1.4921,3,3,0,0,1-.8593,1.0762,3.8786,3.8786,0,0,1-1.3047.6563,5.8621,5.8621,0,0,1-1.627.2324Zm1.9649-6.8721H14.48a3.16,3.16,0,0,0,.8193-.1182,1.97,1.97,0,0,0,.6563-.3261,1.62,1.62,0,0,0,.44-.53,1.5441,1.5441,0,0,0,.1621-.7217,1.7372,1.7372,0,0,0-.1543-.7666,1.3824,1.3824,0,0,0-.4365-.5215,1.9048,1.9048,0,0,0-.6641-.2978,3.9119,3.9119,0,0,0-.84-.1016H12.6045Zm0,1.4912v3.7832H14.74a2.696,2.696,0,0,0,.8477-.1426,2.0548,2.0548,0,0,0,.66-.371,1.6943,1.6943,0,0,0,.4366-.5791,1.8075,1.8075,0,0,0,.1592-.7666,2.2031,2.2031,0,0,0-.1387-.8028,1.618,1.618,0,0,0-.3994-.5986,1.8285,1.8285,0,0,0-.6358-.38,2.6531,2.6531,0,0,0-.84-.1426Z"/><path d="M26.83,14.7432a1.5415,1.5415,0,0,0-.1748-.7452,1.7947,1.7947,0,0,0-.4971-.5673,3.4183,3.4183,0,0,0-.7666-.4278,10.2277,10.2277,0,0,0-.9658-.3379,10.8623,10.8623,0,0,1-1.3819-.5058,5.3189,5.3189,0,0,1-1.2148-.7373,3.5893,3.5893,0,0,1-.8643-1.02,2.682,2.682,0,0,1-.33-1.3486,2.8226,2.8226,0,0,1,.33-1.374A3.2063,3.2063,0,0,1,21.85,6.6484a4.1135,4.1135,0,0,1,1.2881-.6523A5.1206,5.1206,0,0,1,24.67,5.7676a4.7465,4.7465,0,0,1,1.6016.2656,4.0834,4.0834,0,0,1,1.3047.7412,3.5406,3.5406,0,0,1,.8847,1.1416,3.3764,3.3764,0,0,1,.334,1.4717h-1.956a2.854,2.854,0,0,0-.1924-.8193,1.8267,1.8267,0,0,0-1.0879-1.0557,2.5714,2.5714,0,0,0-.9053-.1475,2.7768,2.7768,0,0,0-.8144.1143,1.8826,1.8826,0,0,0-.6485.335,1.565,1.565,0,0,0-.4277.5293,1.5453,1.5453,0,0,0-.1553.7011,1.2332,1.2332,0,0,0,.2119.7217,2.0441,2.0441,0,0,0,.5547.5342,3.8427,3.8427,0,0,0,.7862.3955c.2968.1113.6044.2129.9257.3057a9.7075,9.7075,0,0,1,1.418.5419,5.096,5.096,0,0,1,1.19.7745,3.478,3.478,0,0,1,.8155,1.0478,2.9694,2.9694,0,0,1,.3017,1.3613,2.8259,2.8259,0,0,1-.334,1.3936,3.08,3.08,0,0,1-.8974,1.0107,4.06,4.06,0,0,1-1.3037.6162,5.7188,5.7188,0,0,1-1.55.2081,5.6272,5.6272,0,0,1-1.084-.1065,5.1272,5.1272,0,0,1-1.0313-.3174,4.578,4.578,0,0,1-.917-.5263,3.6879,3.6879,0,0,1-.7382-.7256,3.35,3.35,0,0,1-.4932-.9209,3.5281,3.5281,0,0,1-.1875-1.1211H22.24a2.5742,2.5742,0,0,0,.2364.9375,1.934,1.934,0,0,0,.5224.664,2.2158,2.2158,0,0,0,.7617.3995,3.2677,3.2677,0,0,0,.9659.1347,3.0988,3.0988,0,0,0,.8242-.1054,2.07,2.07,0,0,0,.668-.3145,1.4981,1.4981,0,0,0,.4482-.5137A1.4466,1.4466,0,0,0,26.83,14.7432Z"/><path d="M32.83,16.2031h5.6582v1.5977H30.874V5.9307H32.83Z"/><path d="M48.0508,13.3818h-6.53V11.8086h6.53Z"/><path d="M56.0479,17.8008H54.084V8.3359L51.0508,9.4443V7.7324l4.875-1.8017h.1221Z"/><path d="M63.2305,16.6348a1.5353,1.5353,0,0,1,.0937-.5381,1.2171,1.2171,0,0,1,.2735-.4356,1.267,1.267,0,0,1,.4443-.29,1.8013,1.8013,0,0,1,1.2148,0,1.3125,1.3125,0,0,1,.4483.29,1.2015,1.2015,0,0,1,.2773.4356,1.5353,1.5353,0,0,1,.0938.5381,1.4367,1.4367,0,0,1-.0938.5263,1.1911,1.1911,0,0,1-.2773.42,1.3088,1.3088,0,0,1-.4483.2812,1.8664,1.8664,0,0,1-1.2148,0,1.2631,1.2631,0,0,1-.4443-.2812,1.2063,1.2063,0,0,1-.2735-.42A1.4366,1.4366,0,0,1,63.2305,16.6348Z"/><path d="M78.4346,13.2842a7.0145,7.0145,0,0,1-.2647,2.0263,4.07,4.07,0,0,1-.7627,1.4668,3.15,3.15,0,0,1-1.2148.8926,4.4445,4.4445,0,0,1-3.22,0,3.1854,3.1854,0,0,1-1.2188-.8926,4.1335,4.1335,0,0,1-.7744-1.4668,6.8059,6.8059,0,0,1-.2734-2.0263V10.4473a6.8971,6.8971,0,0,1,.2695-2.0254,4.0642,4.0642,0,0,1,.77-1.4678A3.2032,3.2032,0,0,1,72.96,6.0615,4.0771,4.0771,0,0,1,74.5625,5.76a4.13,4.13,0,0,1,1.6143.3017,3.2125,3.2125,0,0,1,1.2187.8926,4.0953,4.0953,0,0,1,.77,1.4678,6.9322,6.9322,0,0,1,.2686,2.0254Zm-5.7715-.7422,3.7988-2.8281a3.1275,3.1275,0,0,0-.5342-1.7979,1.6484,1.6484,0,0,0-1.3652-.583,1.625,1.625,0,0,0-1.4268.6768,3.6618,3.6618,0,0,0-.4726,2.0791Zm3.8154-1.2959-3.8,2.8291q.1479,2.332,1.9,2.3311,1.8984,0,1.8994-2.7793Z"/><path d="M4,12a8.0106,8.0106,0,0,1,8-8V2a10,10,0,0,0,0,20V20A8.0106,8.0106,0,0,1,4,12Z"/><path d="M87,12A10.0036,10.0036,0,0,0,77,2V4a8,8,0,0,1,0,16v2A10.0036,10.0036,0,0,0,87,12Z"/><rect x="12" y="20" width="65" height="2"/><rect x="12" y="2" width="65" height="2"/></svg>