<svg id="Ebene_1" data-name="Ebene 1" xmlns="http://www.w3.org/2000/svg" viewBox="0 0 89 24"><title>icon</title><path d="M18.6611,14.1563a4.7639,4.7639,0,0,1-.4072,1.5615,3.8355,3.8355,0,0,1-.8643,1.207,3.7894,3.7894,0,0,1-1.2675.7744,4.6181,4.6181,0,0,1-1.627.2725,4.038,4.038,0,0,1-1.8906-.42,3.9161,3.9161,0,0,1-1.3457-1.1368,5.0171,5.0171,0,0,1-.8067-1.68,7.7864,7.7864,0,0,1-.2773-2.0547V11.0586a7.59,7.59,0,0,1,.2852-2.05,5.1243,5.1243,0,0,1,.8193-1.6875,3.94,3.94,0,0,1,1.35-1.1416,4.0022,4.0022,0,0,1,1.875-.42,4.7087,4.7087,0,0,1,1.6709.2773,3.6207,3.6207,0,0,1,1.2559.7822,3.7176,3.7176,0,0,1,.831,1.2315,5.4632,5.4632,0,0,1,.3994,1.6142h-1.956a3.9975,3.9975,0,0,0-.2-.95,2.2851,2.2851,0,0,0-.4111-.7334,1.7057,1.7057,0,0,0-.6563-.4687,2.4283,2.4283,0,0,0-.9336-.1631,1.943,1.943,0,0,0-1.1094.3018,2.27,2.27,0,0,0-.7256.8105,3.8432,3.8432,0,0,0-.3945,1.1787,8.0105,8.0105,0,0,0-.1181,1.4014v1.6387a8.2829,8.2829,0,0,0,.1181,1.4394,3.92,3.92,0,0,0,.3867,1.1778,2.1318,2.1318,0,0,0,.7178.7988,1.9912,1.9912,0,0,0,1.1162.2939,2.0233,2.0233,0,0,0,1.5654-.583,2.7207,2.7207,0,0,0,.6358-1.6513Z"/><path d="M28.6807,14.1563a4.7639,4.7639,0,0,1-.4073,1.5615,3.8337,3.8337,0,0,1-.8642,1.207,3.7908,3.7908,0,0,1-1.2676.7744,4.6178,4.6178,0,0,1-1.627.2725,4.038,4.038,0,0,1-1.8906-.42,3.9161,3.9161,0,0,1-1.3457-1.1368,5.0151,5.0151,0,0,1-.8066-1.68,7.7823,7.7823,0,0,1-.2774-2.0547V11.0586a7.59,7.59,0,0,1,.2852-2.05,5.1262,5.1262,0,0,1,.8193-1.6875,3.9414,3.9414,0,0,1,1.35-1.1416,4.0022,4.0022,0,0,1,1.875-.42,4.7083,4.7083,0,0,1,1.6709.2773,3.62,3.62,0,0,1,1.2559.7822,3.7178,3.7178,0,0,1,.8311,1.2315,5.4694,5.4694,0,0,1,.3994,1.6142H26.7246a3.9975,3.9975,0,0,0-.2-.95,2.2851,2.2851,0,0,0-.4111-.7334,1.7049,1.7049,0,0,0-.6563-.4687,2.428,2.428,0,0,0-.9336-.1631,1.9424,1.9424,0,0,0-1.1093.3018,2.2685,2.2685,0,0,0-.7256.8105,3.8432,3.8432,0,0,0-.3946,1.1787,8.0105,8.0105,0,0,0-.1181,1.4014v1.6387a8.2829,8.2829,0,0,0,.1181,1.4394,3.9226,3.9226,0,0,0,.3868,1.1778,2.1316,2.1316,0,0,0,.7177.7988,1.9914,1.9914,0,0,0,1.1162.2939,2.0235,2.0235,0,0,0,1.5655-.583,2.72,2.72,0,0,0,.6357-1.6513Z"/><path d="M38.3574,13.2842a7.0182,7.0182,0,0,1-.2646,2.0263,4.0733,4.0733,0,0,1-.7627,1.4668,3.1506,3.1506,0,0,1-1.2149.8926,4.4445,4.4445,0,0,1-3.22,0,3.1851,3.1851,0,0,1-1.2187-.8926,4.1352,4.1352,0,0,1-.7745-1.4668,6.8059,6.8059,0,0,1-.2734-2.0263V10.4473a6.9,6.9,0,0,1,.2695-2.0254,4.0658,4.0658,0,0,1,.7705-1.4678,3.2032,3.2032,0,0,1,1.2139-.8926A4.078,4.078,0,0,1,34.4854,5.76,4.13,4.13,0,0,1,36.1,6.0615a3.2128,3.2128,0,0,1,1.2188.8926,4.0969,4.0969,0,0,1,.7705,1.4678,6.9324,6.9324,0,0,1,.2685,2.0254Zm-5.7715-.7422,3.7989-2.8281a3.1282,3.1282,0,0,0-.5342-1.7979,1.6485,1.6485,0,0,0-1.3652-.583,1.6247,1.6247,0,0,0-1.4268.6768,3.6617,3.6617,0,0,0-.4727,2.0791Zm3.8155-1.2959-3.8,2.8291q.1479,2.332,1.9,2.3311,1.8984,0,1.8994-2.7793Z"/><path d="M48.0508,13.3818h-6.53V11.8086h6.53Z"/><path d="M56.0479,17.8008H54.084V8.3359L51.0508,9.4443V7.7324l4.875-1.8017h.1221Z"/><path d="M63.2305,16.6348a1.5353,1.5353,0,0,1,.0937-.5381,1.2171,1.2171,0,0,1,.2735-.4356,1.267,1.267,0,0,1,.4443-.29,1.8013,1.8013,0,0,1,1.2148,0,1.3125,1.3125,0,0,1,.4483.29,1.2015,1.2015,0,0,1,.2773.4356,1.5353,1.5353,0,0,1,.0938.5381,1.4367,1.4367,0,0,1-.0938.5263,1.1911,1.1911,0,0,1-.2773.42,1.3088,1.3088,0,0,1-.4483.2812,1.8664,1.8664,0,0,1-1.2148,0,1.2631,1.2631,0,0,1-.4443-.2812,1.2063,1.2063,0,0,1-.2735-.42A1.4366,1.4366,0,0,1,63.2305,16.6348Z"/><path d="M78.4346,13.2842a7.0145,7.0145,0,0,1-.2647,2.0263,4.07,4.07,0,0,1-.7627,1.4668,3.15,3.15,0,0,1-1.2148.8926,4.4445,4.4445,0,0,1-3.22,0,3.1854,3.1854,0,0,1-1.2188-.8926,4.1335,4.1335,0,0,1-.7744-1.4668,6.8059,6.8059,0,0,1-.2734-2.0263V10.4473a6.8971,6.8971,0,0,1,.2695-2.0254,4.0642,4.0642,0,0,1,.77-1.4678A3.2032,3.2032,0,0,1,72.96,6.0615,4.0771,4.0771,0,0,1,74.5625,5.76a4.13,4.13,0,0,1,1.6143.3017,3.2125,3.2125,0,0,1,1.2187.8926,4.0953,4.0953,0,0,1,.77,1.4678,6.9322,6.9322,0,0,1,.2686,2.0254Zm-5.7715-.7422,3.7988-2.8281a3.1275,3.1275,0,0,0-.5342-1.7979,1.6484,1.6484,0,0,0-1.3652-.583,1.625,1.625,0,0,0-1.4268.6768,3.6618,3.6618,0,0,0-.4726,2.0791Zm3.8154-1.2959-3.8,2.8291q.1479,2.332,1.9,2.3311,1.8984,0,1.8994-2.7793Z"/><path d="M4,12a8.0106,8.0106,0,0,1,8-8V2a10,10,0,0,0,0,20V20A8.0106,8.0106,0,0,1,4,12Z"/><path d="M87,12A10.0036,10.0036,0,0,0,77,2V4a8,8,0,0,1,0,16v2A10.0036,10.0036,0,0,0,87,12Z"/><rect x="12" y="20" width="65" height="2"/><rect x="12" y="2" width="65" height="2"/></svg>