<svg id="Ebene_1" data-name="Ebene 1" xmlns="http://www.w3.org/2000/svg" viewBox="0 0 69 24"><title>icon</title><path d="M16.5205,13.7168l.8477-7.7861h1.8261l-1.5166,11.87h-1.875L14.5068,9.9092l-1.28,7.8916H11.3594L9.8428,5.9307h1.8261l.8487,7.7451,1.2138-7.7451h1.5332Z"/><path d="M29.0908,7.5449H25.4473V17.8008H23.499V7.5449h-3.62V5.9307h9.2119Z"/><path d="M37.8145,12.7461H32.833v5.0547H30.86V5.9307h7.6875V7.5449H32.833v3.5957h4.9815Z"/><path d="M42.8281,13.252v4.5488h-1.957V5.9307h3.9707a5.21,5.21,0,0,1,1.6426.2656,3.8164,3.8164,0,0,1,1.3008.7334,3.3378,3.3378,0,0,1,.8515,1.1572,3.7111,3.7111,0,0,1,.3057,1.5371,3.5593,3.5593,0,0,1-.3057,1.5,3.3333,3.3333,0,0,1-.8515,1.1416,3.8329,3.8329,0,0,1-1.3008.7256,5.3271,5.3271,0,0,1-1.6426.2608Zm0-1.5821h2.0137a2.4576,2.4576,0,0,0,.8887-.15,1.9488,1.9488,0,0,0,.6679-.42,1.7908,1.7908,0,0,0,.4239-.6445,2.2,2.2,0,0,0,.1474-.8145,2.4012,2.4012,0,0,0-.1474-.8564,1.8794,1.8794,0,0,0-.4239-.6729,1.899,1.899,0,0,0-.6679-.4355,2.4975,2.4975,0,0,0-.8887-.1631H42.8281Z"/><path d="M52.8877,16.2031h5.6582v1.5977H50.9316V5.9307h1.9561Z"/><path d="M4,12a8.0106,8.0106,0,0,1,8-8V2a10,10,0,0,0,0,20V20A8.0106,8.0106,0,0,1,4,12Z"/><path d="M67,12A10.0036,10.0036,0,0,0,57,2V4a8,8,0,0,1,0,16v2A10.0036,10.0036,0,0,0,67,12Z"/><rect x="12" y="20" width="45" height="2"/><rect x="12" y="2" width="45" height="2"/></svg>