<svg id="Ebene_1" data-name="Ebene 1" xmlns="http://www.w3.org/2000/svg" viewBox="0 0 89 24"><title>icon</title><path d="M18.6943,12.6318a7.4688,7.4688,0,0,1-.2695,2.0176,5.2915,5.2915,0,0,1-.8027,1.7041,3.9613,3.9613,0,0,1-1.3369,1.1738,3.8747,3.8747,0,0,1-1.8789.4366,3.7556,3.7556,0,0,1-1.8594-.4405,3.9535,3.9535,0,0,1-1.3164-1.1777,5.3493,5.3493,0,0,1-.791-1.7,7.5389,7.5389,0,0,1-.2647-2.0137V11.1162a7.83,7.83,0,0,1,.1182-1.37,6.5661,6.5661,0,0,1,.3506-1.26,5.3605,5.3605,0,0,1,.5791-1.0918,3.6839,3.6839,0,0,1,1.875-1.4228,3.9638,3.9638,0,0,1,1.3-.2041,3.8518,3.8518,0,0,1,1.8789.44,4.0624,4.0624,0,0,1,1.3418,1.1777,5.2476,5.2476,0,0,1,.8066,1.7081,7.5249,7.5249,0,0,1,.2695,2.0224ZM16.73,11.1a8.5622,8.5622,0,0,0-.1221-1.3291,4.01,4.01,0,0,0-.3838-1.1777,2.3571,2.3571,0,0,0-.7129-.84,1.8494,1.8494,0,0,0-1.1132-.3222,1.7961,1.7961,0,0,0-1.0967.3222,2.2838,2.2838,0,0,0-.6924.8438A4.0539,4.0539,0,0,0,12.25,9.7744,9.2324,9.2324,0,0,0,12.14,11.1v1.5322a8.8264,8.8264,0,0,0,.1143,1.3252,4.2043,4.2043,0,0,0,.3623,1.1817,2.3069,2.3069,0,0,0,.6934.8525,1.7828,1.7828,0,0,0,1.0967.3262,1.833,1.833,0,0,0,1.1123-.3262,2.4046,2.4046,0,0,0,.7138-.8476,4.0213,4.0213,0,0,0,.3789-1.1827,8.7847,8.7847,0,0,0,.1182-1.3291Z"/><path d="M27.7764,12.7461H22.7949v5.0547H20.8223V5.9307H28.51V7.5449H22.7949v3.5957h4.9815Z"/><path d="M32.83,16.2031h5.6582v1.5977H30.874V5.9307H32.83Z"/><path d="M48.0508,13.3818h-6.53V11.8086h6.53Z"/><path d="M56.0479,17.8008H54.084V8.3359L51.0508,9.4443V7.7324l4.875-1.8017h.1221Z"/><path d="M63.2305,16.6348a1.5353,1.5353,0,0,1,.0937-.5381,1.2171,1.2171,0,0,1,.2735-.4356,1.267,1.267,0,0,1,.4443-.29,1.8013,1.8013,0,0,1,1.2148,0,1.3125,1.3125,0,0,1,.4483.29,1.2015,1.2015,0,0,1,.2773.4356,1.5353,1.5353,0,0,1,.0938.5381,1.4367,1.4367,0,0,1-.0938.5263,1.1911,1.1911,0,0,1-.2773.42,1.3088,1.3088,0,0,1-.4483.2812,1.8664,1.8664,0,0,1-1.2148,0,1.2631,1.2631,0,0,1-.4443-.2812,1.2063,1.2063,0,0,1-.2735-.42A1.4366,1.4366,0,0,1,63.2305,16.6348Z"/><path d="M76.0869,17.8008H74.1221V8.3359L71.09,9.4443V7.7324l4.875-1.8017h.1221Z"/><path d="M4,12a8.0106,8.0106,0,0,1,8-8V2a10,10,0,0,0,0,20V20A8.0106,8.0106,0,0,1,4,12Z"/><path d="M87,12A10.0036,10.0036,0,0,0,77,2V4a8,8,0,0,1,0,16v2A10.0036,10.0036,0,0,0,87,12Z"/><rect x="12" y="20" width="65" height="2"/><rect x="12" y="2" width="65" height="2"/></svg>