<svg id="Ebene_1" data-name="Ebene 1" xmlns="http://www.w3.org/2000/svg" viewBox="0 0 24 24"><title>icon</title><path d="M12,2A10,10,0,1,0,22,12,10.0036,10.0036,0,0,0,12,2Zm0,18a8,8,0,1,1,8-8A8.0106,8.0106,0,0,1,12,20Z"/><path d="M15.797,13.394a6.89,6.89,0,0,1-.2608,1.99,4.0145,4.0145,0,0,1-.7483,1.4425,3.1108,3.1108,0,0,1-1.1944.8767A4.0446,4.0446,0,0,1,12.0078,18a4.022,4.022,0,0,1-1.5778-.2971,3.1432,3.1432,0,0,1-1.1973-.8767,4.0619,4.0619,0,0,1-.761-1.4425,6.6763,6.6763,0,0,1-.2687-1.99V10.606a6.7849,6.7849,0,0,1,.2648-1.9907,4.0286,4.0286,0,0,1,.756-1.4415,3.16,3.16,0,0,1,1.1944-.8776A4.0087,4.0087,0,0,1,11.9922,6a4.06,4.06,0,0,1,1.5856.2962,3.1544,3.1544,0,0,1,1.1974.8776,4.0143,4.0143,0,0,1,.757,1.4415,6.7849,6.7849,0,0,1,.2648,1.9907Zm-5.672-.73,3.7333-2.7791a3.072,3.072,0,0,0-.5246-1.7662,1.6181,1.6181,0,0,0-1.3415-.5726,1.5972,1.5972,0,0,0-1.4023.6648,3.5958,3.5958,0,0,0-.4649,2.0427Zm3.749-1.2729-3.7323,2.7791q.1441,2.29,1.8661,2.2908,1.8667,0,1.8662-2.7321Z"/></svg>